{
  "accessors": [
    {
      "bufferView": 1,
      "componentType": 5126,
      "count": 65532,
      "max": [
        2.219393253326416,
        3.9533426761627197,
        3.322246551513672
      ],
      "min": [
        -5.041160583496094,
        -6.670978546142578,
        -10.360601425170898
      ],
      "type": "VEC3"
    },
    {
      "bufferView": 1,
      "byteOffset": 786384,
      "componentType": 5126,
      "count": 65532,
      "max": [
        0.9999665021896362,
        0.9999732375144958,
        0.9999958872795105
      ],
      "min": [
        -0.9999910593032837,
        -0.9999741911888123,
        -0.999846875667572
      ],
      "type": "VEC3"
    },
    {
      "bufferView": 0,
      "componentType": 5125,
      "count": 335625,
      "type": "SCALAR"
    },
    {
      "bufferView": 1,
      "byteOffset": 1572768,
      "componentType": 5126,
      "count": 65533,
      "max": [
        2.400172710418701,
        3.9533426761627197,
        3.2989330291748047
      ],
      "min": [
        -4.9936604499816895,
        -7.684216022491455,
        -10.357158660888672
      ],
      "type": "VEC3"
    },
    {
      "bufferView": 1,
      "byteOffset": 2359164,
      "componentType": 5126,
      "count": 65533,
      "max": [
        0.9999990463256836,
        0.9999096989631653,
        0.9999785423278809
      ],
      "min": [
        -0.9999980926513672,
        -0.9998714923858643,
        -0.9999949932098389
      ],
      "type": "VEC3"
    },
    {
      "bufferView": 0,
      "byteOffset": 1342500,
      "componentType": 5125,
      "count": 287817,
      "type": "SCALAR"
    },
    {
      "bufferView": 1,
      "byteOffset": 3145560,
      "componentType": 5126,
      "count": 16931,
      "max": [
        2.196838140487671,
        3.9533426761627197,
        3.290904998779297
      ],
      "min": [
        -4.948910236358643,
        -7.219781398773193,
        -10.360069274902344
      ],
      "type": "VEC3"
    },
    {
      "bufferView": 1,
      "byteOffset": 3348732,
      "componentType": 5126,
      "count": 16931,
      "max": [
        0.9999653697013855,
        0.9998518228530884,
        0.9998270273208618
      ],
      "min": [
        -0.9999980926513672,
        -0.999965250492096,
        -0.999759316444397
      ],
      "type": "VEC3"
    },
    {
      "bufferView": 0,
      "byteOffset": 2493768,
      "componentType": 5125,
      "count": 37449,
      "type": "SCALAR"
    }
  ],
  "asset": {
    "extras": {
      "author": "eon (https://sketchfab.com/facerate)",
      "license": "CC-BY-4.0 (http://creativecommons.org/licenses/by/4.0/)",
      "source": "https://sketchfab.com/3d-models/elven-ranger-statue-71aec2d9f7724ae09992435ce8ff7258",
      "title": "Elven ranger statue"
    },
    "generator": "Sketchfab-12.67.0",
    "version": "2.0"
  },
  "bufferViews": [
    {
      "buffer": 0,
      "byteLength": 2643564,
      "name": "floatBufferViews",
      "target": 34963
    },
    {
      "buffer": 0,
      "byteLength": 3551904,
      "byteOffset": 2643564,
      "byteStride": 12,
      "name": "floatBufferViews",
      "target": 34962
    }
  ],
  "buffers": [
    {
      "byteLength": 6195468,
      "uri": "scene.bin"
    }
  ],
  "materials": [
    {
      "doubleSided": true,
      "name": "material_0",
      "pbrMetallicRoughness": {
        "metallicFactor": 0.0,
        "roughnessFactor": 0.6
      }
    }
  ],
  "meshes": [
    {
      "name": "Object_0",
      "primitives": [
        {
          "attributes": {
            "NORMAL": 1,
            "POSITION": 0
          },
          "indices": 2,
          "material": 0,
          "mode": 4
        }
      ]
    },
    {
      "name": "Object_1",
      "primitives": [
        {
          "attributes": {
            "NORMAL": 4,
            "POSITION": 3
          },
          "indices": 5,
          "material": 0,
          "mode": 4
        }
      ]
    },
    {
      "name": "Object_2",
      "primitives": [
        {
          "attributes": {
            "NORMAL": 7,
            "POSITION": 6
          },
          "indices": 8,
          "material": 0,
          "mode": 4
        }
      ]
    }
  ],
  "nodes": [
    {
      "children": [
        1
      ],
      "matrix": [
        1.0,
        0.0,
        0.0,
        0.0,
        0.0,
        2.220446049250313e-16,
        -1.0,
        0.0,
        0.0,
        1.0,
        2.220446049250313e-16,
        0.0,
        0.0,
        -1.9721522630525295e-31,
        8.881784197001252e-16,
        1.0
      ],
      "name": "Sketchfab_model"
    },
    {
      "children": [
        2,
        3,
        4
      ],
      "name": "elf.OBJ.cleaner.materialmerger.gles"
    },
    {
      "mesh": 0,
      "name": "Object_2"
    },
    {
      "mesh": 1,
      "name": "Object_3"
    },
    {
      "mesh": 2,
      "name": "Object_4"
    }
  ],
  "scene": 0,
  "scenes": [
    {
      "name": "Sketchfab_Scene",
      "nodes": [
        0
      ]
    }
  ]
}
